# xmcd
#
# Track frame offsets:
#	150
#	13154
#	29289
#	51619
#	81373
#	115591
#	149818
#
# Disc length: 2407 seconds
#
# Revision: 0
# Processed by: cddbd v1.5.2PL0 Copyright (c) Steve Scherf et al.
# Submitted via: audiograbber 1.83.01
#
DISCID=63096507
DTITLE=Gregor Salto and Kaoma - Lambada 3000 [CDs)
DYEAR=2009
DGENRE=House
TTITLE0=Lambada 3000 (Radio Edit)
TTITLE1=Lambada 3000  (Olinda Radio Mix)
TTITLE2=Lambada 3000  (Original Club Mix)
TTITLE3=Lambada 3000  (Olinda Mix)
TTITLE4=Lambada 3000  (Cubrasil Mix)
TTITLE5=Lambada 3000  (Arena Mix)
TTITLE6=Lambada 3000  (Rotterdam Mix)
EXTD=
EXTT0=
EXTT1=
EXTT2=
EXTT3=
EXTT4=
EXTT5=
EXTT6=
PLAYORDER=
